<?xml version="1.0" encoding="UTF-8" standalone="no"?>
<!-- Created with Inkscape (http://www.inkscape.org/) -->

<svg
   xmlns:dc="http://purl.org/dc/elements/1.1/"
   xmlns:cc="http://creativecommons.org/ns#"
   xmlns:rdf="http://www.w3.org/1999/02/22-rdf-syntax-ns#"
   xmlns:svg="http://www.w3.org/2000/svg"
   xmlns="http://www.w3.org/2000/svg"
   xmlns:sodipodi="http://sodipodi.sourceforge.net/DTD/sodipodi-0.dtd"
   xmlns:inkscape="http://www.inkscape.org/namespaces/inkscape"
   width="162.60727mm"
   height="37.40089mm"
   viewBox="0 0 162.60727 37.40089"
   version="1.1"
   id="svg8"
   inkscape:version="0.92.1 r15371"
   sodipodi:docname="tip_phore_li.svg">
  <defs
     id="defs2">
    <clipPath
       id="clipPath26"
       clipPathUnits="userSpaceOnUse">
      <path
         inkscape:connector-curvature="0"
         id="path24"
         d="M 0,792 H 612 V 0 H 0 Z" />
    </clipPath>
  </defs>
  <sodipodi:namedview
     id="base"
     pagecolor="#ffffff"
     bordercolor="#666666"
     borderopacity="1.0"
     inkscape:pageopacity="0.0"
     inkscape:pageshadow="2"
     inkscape:zoom="0.94959829"
     inkscape:cx="291.99624"
     inkscape:cy="-70.913452"
     inkscape:document-units="mm"
     inkscape:current-layer="layer1"
     showgrid="false"
     showguides="false"
     inkscape:window-width="944"
     inkscape:window-height="1001"
     inkscape:window-x="0"
     inkscape:window-y="0"
     inkscape:window-maximized="0"
     fit-margin-top="0"
     fit-margin-left="0"
     fit-margin-right="0"
     fit-margin-bottom="0">
    <sodipodi:guide
       position="665.45044,71.078233"
       orientation="0.70710678,0.70710678"
       id="guide3725"
       inkscape:locked="false" />
    <sodipodi:guide
       position="665.45044,71.078233"
       orientation="0.70710678,0.70710678"
       id="guide3727"
       inkscape:locked="false" />
  </sodipodi:namedview>
  <metadata
     id="metadata5">
    <rdf:RDF>
      <cc:Work
         rdf:about="">
        <dc:format>image/svg+xml</dc:format>
        <dc:type
           rdf:resource="http://purl.org/dc/dcmitype/StillImage" />
        <dc:title></dc:title>
      </cc:Work>
    </rdf:RDF>
  </metadata>
  <g
     inkscape:label="レイヤー 1"
     inkscape:groupmode="layer"
     id="layer1"
     transform="translate(-19.970937,-118.36387)">
    <g
       transform="matrix(0.0990314,0,0,-0.0990314,5.6522713,176.09093)"
       inkscape:label="Phore_Blockchain_icon_vector"
       id="g18">
      <g
         id="g20">
        <g
           clip-path="url(#clipPath26)"
           id="g22">
          <g
             transform="translate(307.1836,496.7207)"
             id="g28">
            <path
               inkscape:connector-curvature="0"
               id="path30"
               style="fill:#00d088;fill-opacity:1;fill-rule:nonzero;stroke:none"
               d="m 0,0 h -71.576 -3.609 v -14.352 -125.87 -3.499 c 47.66,11.506 98.693,23.784 146.392,35.128 l 3.009,0.747 c 0,93.123 -0.004,6.342 -0.004,99.464 V 0.015 C 3.387,0.017 70.825,-0.002 0,0 m -160.068,-290.765 c -2.55,-0.706 0.026,0 -2.523,-0.706 0.028,5.485 0.001,4.363 0.001,5.485 -0.007,111.278 -0.007,222.558 -0.006,333.837 0,1.249 -0.003,2.498 0.032,3.746 0.459,16.608 10.379,29.538 26.29,34.332 0,0 1.639,0.213 3.215,0.267 h 292 3.452 c -0.177,-12.353 0,-26.811 0,-39.167 0.076,-13.375 0,-13.375 0,-13.375 l 0.002,-27.625 0.002,-42 0.001,-41.25 c 0.005,-34.375 -0.01,0 -0.005,-34.375 -0.144,-12.962 0.008,-25.877 0,-38.625 -1.968,-16.268 -12.799,-25.737 -27.241,-31.425 -6.405,-2.521 -13.211,-3.666 -19.868,-5.293 -62.267,-15.21 -124.538,-30.406 -186.841,-45.473 l -3.517,-0.871 0.001,-32.362 c 0,-3.888 0,0 -0.001,-3.888 -21.369,-5.014 -46.286,-11.139 -67.59,-16.423 z" />
          </g>
        </g>
      </g>
    </g>
    <flowRoot
       xml:space="preserve"
       id="flowRoot3709"
       style="font-style:normal;font-variant:normal;font-weight:normal;font-stretch:normal;font-size:66.66666412px;line-height:1.25;font-family:Hind;-inkscape-font-specification:Hind;font-variant-ligatures:normal;font-variant-caps:normal;font-variant-numeric:normal;font-feature-settings:normal;text-align:start;letter-spacing:0px;word-spacing:0px;writing-mode:lr-tb;text-anchor:start;fill:#000000;fill-opacity:1;stroke:none"
       transform="scale(0.26458333)"><flowRegion
         id="flowRegion3711"
         style="font-style:normal;font-variant:normal;font-weight:normal;font-stretch:normal;font-family:Hind;-inkscape-font-specification:Hind"><rect
           id="rect3713"
           width="480.20306"
           height="141.1123"
           x="246.41998"
           y="440.12589"
           style="font-style:normal;font-variant:normal;font-weight:normal;font-stretch:normal;font-family:Hind;-inkscape-font-specification:Hind" /></flowRegion><flowPara
         id="flowPara3715"></flowPara></flowRoot>    <flowRoot
       xml:space="preserve"
       id="flowRoot3717"
       style="font-style:normal;font-variant:normal;font-weight:normal;font-stretch:normal;font-size:66.66666412px;line-height:1.25;font-family:Montserrat;-inkscape-font-specification:Montserrat;font-variant-ligatures:normal;font-variant-caps:normal;font-variant-numeric:normal;font-feature-settings:normal;text-align:start;letter-spacing:0px;word-spacing:0px;writing-mode:lr-tb;text-anchor:start;fill:#000000;fill-opacity:1;stroke:none"
       transform="scale(0.26458333)"><flowRegion
         id="flowRegion3719"
         style="font-style:normal;font-variant:normal;font-weight:normal;font-stretch:normal;font-family:Montserrat;-inkscape-font-specification:Montserrat"><rect
           id="rect3721"
           width="429.65536"
           height="151.64307"
           x="271.69385"
           y="442.23203"
           style="font-style:normal;font-variant:normal;font-weight:normal;font-stretch:normal;font-family:Montserrat;-inkscape-font-specification:Montserrat" /></flowRegion><flowPara
         id="flowPara3723"></flowPara></flowRoot>    <g
       aria-label="Tip Phore"
       transform="matrix(0.38750213,0,0,0.38750213,-18.755658,-56.161457)"
       style="font-style:normal;font-variant:normal;font-weight:normal;font-stretch:normal;font-size:66.66666412px;line-height:1.25;font-family:Montserrat;-inkscape-font-specification:Montserrat;font-variant-ligatures:normal;font-variant-caps:normal;font-variant-numeric:normal;font-feature-settings:normal;text-align:start;letter-spacing:0px;word-spacing:0px;writing-mode:lr-tb;text-anchor:start;fill:#000000;fill-opacity:1;stroke:none"
       id="flowRoot3729">
      <path
         d="m 213.78776,466.23228 h -16.4 v -4.26667 h 37.73333 v 4.26667 h -16.4 v 42.39999 h -4.93333 z"
         id="path3741"
         inkscape:connector-curvature="0" />
      <path
         d="m 241.09088,473.56561 h 4.73334 v 35.06666 h -4.73334 z m 2.4,-7.66667 q -1.46666,0 -2.46666,-1 -1,-1 -1,-2.4 0,-1.33333 1,-2.33333 1,-1 2.46666,-1 1.46667,0 2.46667,1 1,0.93333 1,2.26667 0,1.46666 -1,2.46666 -1,1 -2.46667,1 z"
         id="path3743"
         inkscape:connector-curvature="0" />
      <path
         d="m 277.1263,473.29894 q 4.93333,0 8.93333,2.26667 4,2.2 6.26667,6.26666 2.26666,4.06667 2.26666,9.26667 0,5.26667 -2.26666,9.33333 -2.26667,4.06667 -6.26667,6.33334 -3.93333,2.2 -8.93333,2.2 -4.26667,0 -7.73333,-1.73334 -3.4,-1.8 -5.6,-5.2 v 19.53334 h -4.73334 v -48 h 4.53334 v 6.93333 q 2.13333,-3.46666 5.6,-5.33333 3.53333,-1.86667 7.93333,-1.86667 z m -0.33333,31.46667 q 3.66666,0 6.66666,-1.66667 3,-1.73333 4.66667,-4.86667 1.73333,-3.13333 1.73333,-7.13333 0,-4 -1.73333,-7.06667 -1.66667,-3.13333 -4.66667,-4.86666 -3,-1.73333 -6.66666,-1.73333 -3.73334,0 -6.73334,1.73333 -2.93333,1.73333 -4.66666,4.86666 -1.66667,3.06667 -1.66667,7.06667 0,4 1.66667,7.13333 1.73333,3.13334 4.66666,4.86667 3,1.66667 6.73334,1.66667 z"
         id="path3745"
         inkscape:connector-curvature="0" />
      <path
         d="m 340.1565,461.96561 q 8.93333,0 14,4.26667 5.06667,4.26666 5.06667,11.73333 0,7.46666 -5.06667,11.73333 -5.06667,4.2 -14,4.2 h -12.53333 v 14.73333 h -4.93333 v -46.66666 z m -0.13333,27.6 q 6.93333,0 10.6,-3 3.66666,-3.06667 3.66666,-8.6 0,-5.66667 -3.66666,-8.66667 -3.66667,-3.06666 -10.6,-3.06666 h -12.4 v 23.33333 z"
         id="path3747"
         inkscape:connector-curvature="0" />
      <path
         d="m 387.47317,473.29894 q 6.6,0 10.46666,3.86667 3.93334,3.8 3.93334,11.13333 v 20.33333 h -4.73334 v -19.86666 q 0,-5.46667 -2.73333,-8.33333 -2.73333,-2.86667 -7.8,-2.86667 -5.66667,0 -9,3.4 -3.26667,3.33333 -3.26667,9.26666 v 18.4 h -4.73333 v -49.46666 h 4.73333 v 20.53333 q 1.93334,-3.06666 5.33334,-4.73333 3.4,-1.66667 7.8,-1.66667 z"
         id="path3749"
         inkscape:connector-curvature="0" />
      <path
         d="m 429.25233,508.96561 q -5.06666,0 -9.13333,-2.26667 -4.06667,-2.33333 -6.4,-6.4 -2.33333,-4.06667 -2.33333,-9.2 0,-5.13333 2.33333,-9.2 2.33333,-4.06666 6.4,-6.33333 4.06667,-2.26667 9.13333,-2.26667 5.06667,0 9.13334,2.26667 4.06666,2.26667 6.33333,6.33333 2.33333,4.06667 2.33333,9.2 0,5.13333 -2.33333,9.2 -2.26667,4.06667 -6.33333,6.4 -4.06667,2.26667 -9.13334,2.26667 z m 0,-4.2 q 3.73334,0 6.66667,-1.66667 3,-1.73333 4.66667,-4.86667 1.66666,-3.13333 1.66666,-7.13333 0,-4 -1.66666,-7.13333 -1.66667,-3.13333 -4.66667,-4.8 -2.93333,-1.73333 -6.66667,-1.73333 -3.73333,0 -6.73333,1.73333 -2.93333,1.66667 -4.66667,4.8 -1.66666,3.13333 -1.66666,7.13333 0,4 1.66666,7.13333 1.73334,3.13334 4.66667,4.86667 3,1.66667 6.73333,1.66667 z"
         id="path3751"
         inkscape:connector-curvature="0" />
      <path
         d="m 461.24921,480.43228 q 1.66666,-3.53334 4.93333,-5.33334 3.33333,-1.8 8.2,-1.8 v 4.6 l -1.13333,-0.0667 q -5.53334,0 -8.66667,3.39999 -3.13333,3.4 -3.13333,9.53334 v 17.86666 h -4.73334 v -35.06666 h 4.53334 z"
         id="path3753"
         inkscape:connector-curvature="0" />
      <path
         d="m 513.03046,492.56561 h -29.33334 q 0.4,5.46666 4.2,8.86666 3.8,3.33334 9.6,3.33334 3.26667,0 6,-1.13334 2.73334,-1.2 4.73334,-3.46666 l 2.66666,3.06666 q -2.33333,2.8 -5.86666,4.26667 -3.46667,1.46667 -7.66667,1.46667 -5.4,0 -9.6,-2.26667 -4.13333,-2.33333 -6.46666,-6.4 -2.33334,-4.06667 -2.33334,-9.2 0,-5.13333 2.2,-9.2 2.26667,-4.06666 6.13333,-6.33333 3.93334,-2.26667 8.8,-2.26667 4.86667,0 8.73334,2.26667 3.86666,2.26667 6.06666,6.33333 2.2,4 2.2,9.2 z m -16.93334,-15.2 q -5.06666,0 -8.53333,3.26667 -3.4,3.19999 -3.86667,8.39999 h 24.86667 q -0.46667,-5.2 -3.93333,-8.39999 -3.4,-3.26667 -8.53334,-3.26667 z"
         id="path3755"
         inkscape:connector-curvature="0" />
    </g>
    <text
       xml:space="preserve"
       style="font-style:normal;font-variant:normal;font-weight:normal;font-stretch:normal;font-size:7.05555556px;line-height:1.25;font-family:Montserrat;-inkscape-font-specification:Montserrat;font-variant-ligatures:normal;font-variant-caps:normal;font-variant-numeric:normal;font-feature-settings:normal;text-align:start;letter-spacing:0px;word-spacing:0px;writing-mode:lr-tb;text-anchor:start;fill:#000000;fill-opacity:1;stroke:none;stroke-width:0.26458332;"
       x="107.73831"
       y="150.19223"
       id="text3760"><tspan
         sodipodi:role="line"
         id="tspan3758"
         x="107.73831"
         y="166.40402"
         style="stroke-width:0.26458332;font-size:7.05555556px;" /></text>
    <text
       xml:space="preserve"
       style="font-style:normal;font-variant:normal;font-weight:normal;font-stretch:normal;font-size:9.02373505px;line-height:1.25;font-family:Montserrat;-inkscape-font-specification:Montserrat;font-variant-ligatures:normal;font-variant-caps:normal;font-variant-numeric:normal;font-feature-settings:normal;text-align:start;letter-spacing:0px;word-spacing:0px;writing-mode:lr-tb;text-anchor:start;fill:#000000;fill-opacity:1;stroke:none;stroke-width:0.33839005"
       x="143.67917"
       y="151.93126"
       id="text3764"><tspan
         sodipodi:role="line"
         id="tspan3762"
         x="143.67917"
         y="151.93126"
         style="stroke-width:0.33839005">via LINE</tspan></text>
  </g>
</svg>
